<?xml version="1.0" standalone="no"?>
<!DOCTYPE svg PUBLIC "-//W3C//DTD SVG 20010904//EN"
 "http://www.w3.org/TR/2001/REC-SVG-20010904/DTD/svg10.dtd">
<svg version="1.0" xmlns="http://www.w3.org/2000/svg"
 width="1200.000000pt" height="218.000000pt" viewBox="0 0 1200.000000 218.000000"
 preserveAspectRatio="xMidYMid meet">

<g transform="translate(0.000000,218.000000) scale(0.100000,-0.100000)"
fill="#000000" stroke="none">
<path d="M2745 2169 c-503 -69 -880 -405 -975 -869 -29 -138 -25 -350 9 -480
46 -177 170 -385 299 -501 231 -207 520 -313 857 -312 346 1 650 120 870 339
398 398 404 1052 13 1470 -155 166 -371 284 -611 335 -108 23 -355 33 -462 18z
m373 -225 c347 -71 614 -338 688 -684 21 -99 18 -271 -6 -366 -78 -304 -314
-543 -635 -640 -81 -25 -105 -28 -245 -28 -140 0 -164 3 -243 27 -307 94 -540
329 -618 622 -27 103 -30 297 -6 398 84 344 345 595 698 672 89 19 273 19 367
-1z"/>
<path d="M7245 2068 c-50 -56 -95 -109 -102 -118 -8 -11 100 24 305 97 174 63
319 116 321 119 2 2 -94 4 -215 4 l-219 0 -90 -102z"/>
<path d="M0 1020 l0 -870 785 0 785 0 0 95 0 95 -665 0 -665 0 0 775 0 775
-120 0 -120 0 0 -870z"/>
<path d="M1260 1628 c-57 -145 -112 -285 -122 -311 l-18 -48 90 3 91 3 159
300 c88 165 160 303 160 308 0 4 -58 7 -128 7 l-128 0 -104 -262z"/>
<path d="M4427 1884 c-4 -4 -7 -396 -7 -871 l0 -863 125 0 125 0 0 365 0 365
358 -2 357 -3 260 -362 260 -363 153 0 c83 0 152 2 152 5 0 3 -80 112 -177
243 -98 130 -215 290 -260 356 l-83 119 81 32 c45 18 106 50 136 71 169 116
247 317 198 509 -50 196 -176 320 -382 377 -75 21 -100 22 -683 26 -333 2
-609 0 -613 -4z m1258 -237 c106 -50 163 -125 172 -226 10 -111 -36 -221 -116
-274 -90 -60 -113 -62 -611 -62 l-455 0 -3 298 -2 298 477 -3 478 -3 60 -28z"/>
<path d="M6530 1020 l0 -870 775 0 775 0 0 95 0 95 -645 0 -645 0 2 303 3 302
483 3 482 2 0 95 0 95 -485 0 -485 0 2 278 3 277 643 3 643 2 -3 93 -3 92
-772 3 -773 2 0 -870z"/>
<path d="M8825 1383 c-142 -280 -341 -671 -442 -870 l-185 -363 149 0 148 0
115 225 115 225 528 0 527 0 112 -225 113 -225 148 0 149 0 -180 353 c-99 193
-297 585 -442 870 l-262 517 -168 0 -168 0 -257 -507z m633 -148 c111 -223
202 -407 202 -410 0 -3 -184 -5 -410 -5 -225 0 -410 2 -410 5 0 10 405 815
410 815 3 0 96 -182 208 -405z"/>
<path d="M10437 1884 c-4 -4 -7 -396 -7 -871 l0 -863 785 0 785 0 0 95 0 95
-660 0 -660 0 -2 773 -3 772 -116 3 c-63 1 -118 -1 -122 -4z"/>
</g>
</svg>
